<svg width="24" height="24" viewBox="0 0 24 24" fill="none" xmlns="http://www.w3.org/2000/svg">
<path d="M11.9996 11.6816C13.9733 11.6816 15.5735 9.73811 15.5735 7.34081C15.5735 4.94346 15.048 3 11.9996 3C8.95112 3 8.42578 4.94346 8.42578 7.34081C8.42584 9.73811 10.0259 11.6816 11.9996 11.6816Z" fill="#9AA1A7"/>
<path d="M18.7424 18.1341C18.6763 13.9579 18.1308 12.7679 13.9571 12.0146C13.9571 12.0146 13.3694 12.7632 12.0001 12.7632C10.6307 12.7632 10.0431 12.0146 10.0431 12.0146C5.91492 12.7596 5.33623 13.932 5.26017 17.9984C5.25398 18.3305 5.25113 18.3479 5.25 18.3093C5.25022 18.3816 5.25054 18.5152 5.25054 18.7481C5.25054 18.7481 6.24424 20.7513 12.0001 20.7513C17.756 20.7513 18.7498 18.7481 18.7498 18.7481C18.7498 18.5985 18.7499 18.4943 18.75 18.4236C18.7489 18.4474 18.7466 18.4012 18.7424 18.1341Z" fill="#9AA1A7"/>
</svg>
