<svg width="18" height="18" viewBox="0 0 18 18" fill="none" xmlns="http://www.w3.org/2000/svg">
<path d="M6.7498 11.7966L3.77658 8.82342C3.67895 8.72579 3.52066 8.72579 3.42303 8.82342L2.37303 9.87342C2.32614 9.9203 2.2998 9.98389 2.2998 10.0502C2.2998 10.1165 2.32614 10.1801 2.37303 10.227L6.57303 14.427C6.61991 14.4739 6.6835 14.5002 6.7498 14.5002C6.81611 14.5002 6.8797 14.4739 6.92658 14.427L15.9266 5.42697C16.0242 5.32934 16.0242 5.17105 15.9266 5.07342L14.8766 4.02342C14.8297 3.97653 14.7661 3.9502 14.6998 3.9502C14.6335 3.9502 14.5699 3.97653 14.523 4.02342L6.7498 11.7966Z" fill="#39AE41" stroke="#39AE41" stroke-width="0.5" stroke-linejoin="round"/>
</svg>
