<svg width="16" height="16" viewBox="0 0 16 16" fill="none" xmlns="http://www.w3.org/2000/svg">
<path d="M13.9436 0.646447C13.7483 0.451184 13.4317 0.451184 13.2364 0.646447L8 5.88289L2.76355 0.646447C2.56829 0.451184 2.25171 0.451184 2.05645 0.646447L0.646447 2.05645C0.451184 2.25171 0.451184 2.56829 0.646447 2.76355L5.88289 8L0.646447 13.2364C0.451184 13.4317 0.451184 13.7483 0.646447 13.9436L2.05645 15.3536C2.25171 15.5488 2.56829 15.5488 2.76355 15.3536L8 10.1171L13.2364 15.3536C13.4317 15.5488 13.7483 15.5488 13.9436 15.3536L15.3536 13.9436C15.5488 13.7483 15.5488 13.4317 15.3536 13.2364L10.1171 8L15.3536 2.76355C15.5488 2.56829 15.5488 2.25171 15.3536 2.05645L13.9436 0.646447Z" fill="#B29F89" stroke="#B29F89" stroke-linejoin="round"/>
</svg>
