<svg width="19" height="20" viewBox="0 0 19 20" fill="none" xmlns="http://www.w3.org/2000/svg">
<path fill-rule="evenodd" clip-rule="evenodd" d="M4.23861 0.000487422C3.97865 -0.00522408 3.71491 0.039082 3.45753 0.14275C2.74137 0.426934 2.29051 1.08164 2.21869 1.7994H7.06179C7.34598 1.7994 7.32313 1.45066 7.07772 1.38732L5.97352 1.10504C5.63568 0.431276 4.96072 0.0164376 4.23849 0.000487422H4.23861ZM2.21674 2.2002C2.23543 2.38105 2.26987 2.56347 2.34031 2.74139C2.74529 3.76354 3.90556 4.26615 4.92929 3.86012C5.64719 3.57456 6.09822 2.91809 6.17124 2.2002H2.21674ZM2.65717 6.14429C2.65717 5.66609 2.93528 5.11328 3.54847 5.11328L4.71045 5.11342C4.99462 5.11342 5.26028 5.24963 5.42245 5.48224L7.11091 7.90157H9.02197C10.2226 7.85589 10.2226 9.67919 9.02197 9.6335H6.65992C6.37867 9.6335 6.11301 9.49539 5.95084 9.26434L5.26862 8.28823L5.25702 10.8698L7.23591 13.3966C7.34218 13.53 7.41071 13.6896 7.43806 13.8575L7.98825 17.209C8.2077 18.5458 6.20199 18.8736 5.98358 17.5365L5.47822 14.4449L2.9841 11.2673C2.79493 11.0247 2.65717 10.835 2.65717 10.4965V6.14429ZM2.79307 11.9854L2.36212 13.5966L0.198211 16.8061C-0.580071 17.9331 1.13298 19.0846 1.8841 17.9388L4.14146 14.5914C4.20463 14.498 4.25171 14.3947 4.28061 14.2856L4.36091 13.9857L2.79307 11.9854ZM16.9837 4.10803C18.0971 4.10803 18.9996 3.20547 18.9996 2.0921C18.9996 0.978734 18.0971 0.0761719 16.9837 0.0761719C15.8703 0.0761719 14.9678 0.978734 14.9678 2.0921C14.9678 3.20547 15.8703 4.10803 16.9837 4.10803ZM10.174 3.14567C10.2228 3.13269 10.2712 3.12577 10.3186 3.12144L10.3186 3.12144C10.6565 3.10102 10.9694 3.31806 11.0597 3.65693L12.085 7.48334C12.0965 7.52661 12.104 7.56995 12.1075 7.61295C12.0687 7.60929 12.0294 7.60742 11.9896 7.60742C11.3956 7.60742 10.8991 8.0249 10.7775 8.58245L10.3517 8.69656C10.3377 8.39904 10.2344 8.10084 10.0173 7.86373C9.78472 7.60811 9.41417 7.4501 9.00365 7.46446H7.33663L6.42764 6.16106L6.11179 4.98332C6.00865 4.59635 6.23536 4.20122 6.62322 4.09755L10.174 3.14567ZM18.4658 6.23218C18.4658 5.75398 18.1874 5.20117 17.5735 5.20117L16.4102 5.20131C16.1257 5.20131 15.8597 5.33752 15.6973 5.57013L14.0069 7.98946H12.0936C10.8916 7.94378 10.8916 9.76708 12.0936 9.72139H14.4584C14.74 9.72139 15.006 9.58328 15.1683 9.35223L15.8513 8.37612L15.8601 10.0439H15.8535V17.7089H15.8537L15.8535 17.7309C15.8535 18.4527 16.4387 19.0379 17.1605 19.0379C17.8824 19.0379 18.4676 18.4527 18.4676 17.7309L18.4674 17.7089H18.4676V10.0439H18.4658V6.23218Z" fill="black"/>
</svg>
