<svg width="24" height="24" viewBox="0 0 24 24" fill="none" xmlns="http://www.w3.org/2000/svg">
<path d="M16.8401 9.49907L16.5125 9.16562C16.4094 9.06148 16.2723 9.00411 16.1257 9.00411C15.9792 9.00411 15.8419 9.06148 15.7388 9.16562L12.0022 12.9433L8.2613 9.16142C8.15837 9.05729 8.02106 9 7.87455 9C7.72805 9 7.59065 9.05729 7.48764 9.16142L7.16 9.49282C6.94667 9.70833 6.94667 10.0594 7.16 10.2749L11.614 14.7939C11.7169 14.8979 11.8541 14.9712 12.0019 14.9712H12.0036C12.1502 14.9712 12.2873 14.8978 12.3902 14.7939L16.8401 10.2871C16.9432 10.1831 16.9998 10.0402 16.9999 9.89211C16.9999 9.74392 16.9432 9.60304 16.8401 9.49907Z" fill="#9093A4"/>
</svg>
