<svg width="16" height="10" viewBox="0 0 16 10" fill="none" xmlns="http://www.w3.org/2000/svg">
<path d="M15.7443 0.798516L15.2202 0.264988C15.0552 0.0983679 14.8358 0.0065754 14.6012 0.0065754C14.3668 0.0065754 14.1471 0.0983679 13.9822 0.264988L8.00358 6.30935L2.0181 0.258282C1.85341 0.091661 1.6337 0 1.3993 0C1.16489 0 0.945048 0.091661 0.780234 0.258282L0.256002 0.788521C-0.085334 1.13334 -0.085334 1.69501 0.256002 2.03982L7.38243 9.27026C7.54712 9.43674 7.76657 9.55405 8.00306 9.55405H8.00579C8.24033 9.55405 8.45978 9.43661 8.62446 9.27026L15.7443 2.05941C15.9092 1.89292 15.9997 1.66436 16 1.42739C16 1.19028 15.9092 0.964874 15.7443 0.798516Z" fill="black"/>
</svg>
