<svg width="16" height="10" viewBox="0 0 16 10" fill="none" xmlns="http://www.w3.org/2000/svg">
<path d="M0.255742 8.75519L0.779843 9.28872C0.944787 9.45534 1.16424 9.54714 1.39878 9.54714C1.63318 9.54714 1.85289 9.45534 2.01784 9.28872L7.99642 3.24436L13.9819 9.29543C14.1466 9.46205 14.3663 9.55371 14.6007 9.55371C14.8351 9.55371 15.055 9.46205 15.2198 9.29543L15.744 8.76519C16.0853 8.42038 16.0853 7.85871 15.744 7.51389L8.61757 0.283456C8.45288 0.116966 8.23343 -0.000338554 7.99694 -0.000338554H7.99421C7.75967 -0.000338554 7.54022 0.117098 7.37554 0.283456L0.255742 7.4943C0.0907974 7.66079 0.000259399 7.88935 0 8.12632C0 8.36343 0.0907974 8.58884 0.255742 8.75519Z" fill="black"/>
</svg>
