<svg width="22" height="22" viewBox="0 0 22 22" fill="none" xmlns="http://www.w3.org/2000/svg">
<path d="M3.28611 14.6498C5.09325 13.3564 5.1788 12.5794 6.3842 12.5794H10.6002C11.2886 12.5794 11.7189 14.133 11.2886 14.4777C10.8588 14.8234 10.2562 17.3246 11.1165 17.3246H12.1368L11.8792 12.2767L11.3937 11.9095C11.2585 11.9986 11.1069 12.0625 10.9337 12.0625H6.29804C5.82321 12.0625 5.43741 11.6757 5.43741 11.1999C5.43741 10.7237 5.82338 10.3374 6.29804 10.3374H8.5679L8.55677 10.3345C7.7918 10.0973 7.36196 9.28354 7.59899 8.51601L8.77501 4.69137C9.01068 3.92366 9.82314 3.4934 10.5886 3.72994L11.2244 3.92703C11.9251 4.14325 12.3378 4.84388 12.2222 5.54945C12.7482 6.38854 13.8103 7.82292 15.5374 9.05565C15.6268 9.11957 15.689 9.2033 15.7369 9.29518H15.9695C16.2715 8.69912 16.8141 8.29562 17.7195 8.26733C17.7195 8.26733 18.8393 9.47496 17.7195 10.854C17.7195 10.854 17.0303 10.9411 17.7195 11.8038C18.3538 12.597 19.8956 14.0884 20.1377 16.1708C21.2249 16.5779 22 17.6242 22 18.8555C22 20.4407 20.7193 21.7245 19.1386 21.7245C17.7421 21.7245 16.5804 20.7211 16.3278 19.3945H8.86392C8.6123 20.721 7.45108 21.7245 6.05414 21.7245C4.65821 21.7245 3.49597 20.7211 3.24435 19.3945H2.42407C1.21964 19.3948 1.47772 15.945 3.28589 14.6496L3.28611 14.6498ZM19.139 20.4762C20.0309 20.4762 20.754 19.751 20.754 18.8556C20.754 17.9613 20.0309 17.237 19.139 17.237C18.2462 17.237 17.5225 17.9613 17.5225 18.8556C17.5225 19.751 18.2462 20.4762 19.139 20.4762ZM16.0843 13.8317C15.8192 12.8323 15.5319 11.4136 15.689 10.2577H14.8011C14.5588 10.2577 14.3673 10.0763 14.3332 9.84289C13.1846 8.95404 12.3313 8.00655 11.7314 7.21323L11.1307 9.16425L13.4769 10.9408L13.5208 10.9739C13.753 11.1515 13.8955 11.4372 13.8799 11.7509L13.5954 17.3242H15.5684C15.5682 17.3242 16.6006 15.771 16.0843 13.8317L16.0843 13.8317ZM6.0549 20.4762C6.75843 20.4762 7.35567 20.0238 7.57706 19.3949H4.53292C4.75398 20.0238 5.35171 20.4762 6.0549 20.4762V20.4762Z" fill="black"/>
<path d="M1.35186 4.91016H4.0861C4.83248 4.91016 5.4375 5.51653 5.4375 6.26459V6.72136H0.000414534V6.26459C0.000414534 5.51653 0.605772 4.91016 1.35182 4.91016H1.35186Z" fill="black"/>
<path d="M5.43746 9.84578C5.43746 10.5933 4.83244 11.2002 4.08605 11.2002H1.35182C0.605942 11.2002 0.000414534 10.5933 0.000414534 9.84578V7.39258H5.4375L5.43746 9.84578Z" fill="black"/>
<path d="M14.4 1.6644H13.5044C13.5044 2.58441 12.7608 3.32978 11.8432 3.32978C10.9266 3.32978 10.1825 2.58458 10.1825 1.6644C10.1825 0.74525 10.9266 0 11.8432 0C12.5082 0 13.0775 0.394166 13.3429 0.959634H14.3999C14.5942 0.959634 14.752 1.1171 14.752 1.31202C14.752 1.50694 14.5945 1.6644 14.4 1.6644H14.4Z" fill="black"/>
</svg>
