<svg width="16" height="17" viewBox="0 0 16 17" fill="none" xmlns="http://www.w3.org/2000/svg">
<path fill-rule="evenodd" clip-rule="evenodd" d="M10.1623 0C9.80406 0 9.51363 0.290437 9.51363 0.648636C9.51363 1.00684 9.80406 1.29727 10.1623 1.29727C12.6698 1.29727 14.7027 3.33006 14.7027 5.83773C14.7027 6.19593 14.9932 6.48636 15.3514 6.48636C15.7096 6.48636 16 6.19593 16 5.83773C16 2.61367 13.3863 0 10.1623 0ZM4.70929 2.21358C4.06384 1.56813 3.01735 1.56813 2.3719 2.21358L1.16874 3.41674C-0.00733101 4.59281 -0.3305 6.37497 0.357796 7.889C2.09406 11.7089 5.15548 14.7705 8.97539 16.5066C10.4894 17.1947 12.2716 16.8717 13.4476 15.6957L14.6507 14.4925C15.2963 13.847 15.2963 12.8005 14.6507 12.155L13.0323 10.5365C12.5291 10.0334 11.7606 9.90874 11.1243 10.2269L10.226 10.676C9.70264 10.9379 9.07035 10.8352 8.65641 10.4213L6.44308 8.20796C6.02914 7.79402 5.92661 7.16173 6.1884 6.63818L6.63737 5.7401C6.9556 5.10377 6.83095 4.33512 6.32782 3.83211L4.70929 2.21358ZM8.64844 3.24336C8.64844 2.88516 8.93887 2.59473 9.29707 2.59473C11.566 2.59473 13.4054 4.43393 13.4054 6.70263C13.4054 7.06083 13.1149 7.35127 12.7567 7.35127C12.3985 7.35127 12.1081 7.06083 12.1081 6.70263C12.1081 5.15039 10.8496 3.89193 9.29722 3.89193C8.93902 3.89193 8.64859 3.60149 8.64859 3.24329L8.64844 3.24336Z" fill="black"/>
</svg>
