<svg width="22" height="28" viewBox="0 0 22 28" fill="none" xmlns="http://www.w3.org/2000/svg">
<path fill-rule="evenodd" clip-rule="evenodd" d="M10.9999 0C8.08293 0.00133934 5.2858 1.1607 3.22325 3.22325C1.1607 5.28603 0.00131431 8.08315 0 10.9999C0 13.6473 1.65671 16.8246 3.7108 19.6566C5.69209 22.3192 7.90549 24.8005 10.3252 27.0716C10.5096 27.2402 10.7502 27.3337 11 27.3337C11.2498 27.3337 11.4904 27.2402 11.6748 27.0716C14.0947 24.8006 16.3081 22.3193 18.2892 19.6566C20.3432 16.8247 22 13.6474 22 10.9999C21.9987 8.08293 20.8393 5.2858 18.7768 3.22325C16.714 1.1607 13.9167 0.00131431 10.9999 0ZM10.9999 2.00003C13.3866 2.00115 15.6752 2.94982 17.3629 4.63733C19.0506 6.32507 19.9991 8.61351 20.0002 11.0003C20.0002 13.3023 18.4569 16.0205 16.6709 18.4833C14.9579 20.7893 13.0615 22.9534 11.0001 24.9539C8.93865 22.9532 7.04217 20.7893 5.32923 18.4835C3.54326 16.0207 1.99992 13.3026 1.99992 11.0005C2.00103 8.61384 2.94948 6.32546 4.63722 4.63755C6.32473 2.95004 8.61316 2.00112 10.9999 2.00003ZM10.9999 5.33334C9.49701 5.33334 8.05573 5.93043 6.99297 6.99319C5.93021 8.05595 5.33311 9.49723 5.33311 11.0002C5.33311 12.5031 5.93021 13.9444 6.99297 15.0071C8.05573 16.0699 9.49701 16.667 10.9999 16.667C12.5029 16.667 13.9442 16.0699 15.0069 15.0071C16.0697 13.9444 16.6668 12.5031 16.6668 11.0002C16.6659 9.49746 16.0685 8.05658 15.0061 6.9941C13.9436 5.93163 12.5026 5.33403 10.9999 5.33334Z" fill="#6D6D6D"/>
</svg>
