<svg width="10" height="14" viewBox="0 0 10 14" fill="none" xmlns="http://www.w3.org/2000/svg">
<path d="M4.99994 0C3.80518 0 2.64993 0.427833 1.74346 1.20606C0.836857 1.98425 0.238904 3.06123 0.0577471 4.24226C-0.123268 5.42316 0.124455 6.62984 0.756164 7.64404L5.00001 13.8512L9.24385 7.64404C9.87553 6.62991 10.1233 5.42323 9.94227 4.24226C9.76112 3.06123 9.16315 1.98425 8.25655 1.20606C7.35005 0.427865 6.19483 0 5.00007 0H4.99994ZM4.99994 6.83934C4.51217 6.83934 4.0443 6.64563 3.69946 6.30067C3.35449 5.95583 3.16079 5.48796 3.16079 5.00019C3.16079 4.51242 3.3545 4.04456 3.69946 3.69971C4.0443 3.35474 4.51217 3.16104 4.99994 3.16104C5.48771 3.16104 5.95558 3.35476 6.30042 3.69971C6.64539 4.04456 6.83909 4.51242 6.83909 5.00019C6.83909 5.48796 6.64538 5.95583 6.30042 6.30067C5.95558 6.64564 5.48771 6.83934 4.99994 6.83934Z" fill="black"/>
</svg>
