<svg width="32" height="32" viewBox="0 0 32 32" fill="none" xmlns="http://www.w3.org/2000/svg">
<path fill-rule="evenodd" clip-rule="evenodd" d="M19.7972 18.6974L25.2197 24.1199C25.3716 24.2717 25.3716 24.518 25.2197 24.6699L24.6699 25.2197C24.518 25.3716 24.2718 25.3716 24.1199 25.2197L18.6974 19.7972C17.4276 20.8257 15.8134 21.4448 14.0559 21.4448C9.98167 21.4448 6.66699 18.1301 6.66699 14.0559C6.66699 9.98167 9.98164 6.66699 14.0559 6.66699C18.1301 6.66699 21.4448 9.98167 21.4448 14.0559C21.4448 15.8134 20.8257 17.4276 19.7972 18.6974ZM8.22256 14.0559C8.22256 17.2726 10.8392 19.8892 14.0559 19.8892C17.2726 19.8892 19.8892 17.2726 19.8892 14.0559C19.8892 10.8392 17.2726 8.22256 14.0559 8.22256C10.8392 8.22256 8.22256 10.8392 8.22256 14.0559Z" fill="#462F0A"/>
</svg>
